<?xml version="1.0" standalone="no"?><!DOCTYPE svg PUBLIC "-//W3C//DTD SVG 1.1//EN" "http://www.w3.org/Graphics/SVG/1.1/DTD/svg11.dtd"><svg t="1583742822787" class="icon" viewBox="0 0 1024 1024" version="1.1" xmlns="http://www.w3.org/2000/svg" p-id="13924" xmlns:xlink="http://www.w3.org/1999/xlink" width="200" height="200"><defs><style type="text/css"></style></defs><path d="M153.634861 870.215053C-48.287055 668.293137-51.580637 344.05265 146.236969 146.235044s521.906081-194.524024 723.980009 7.397892 205.41818 526.314414 7.549904 724.13202-522.058093 194.524024-724.132021-7.549903z m402.070365-365.688951l156.774506-156.774506a31.669058 31.669058 0 0 0 0-44.792716l-6.435152-6.384482a31.669058 31.669058 0 0 0-44.792716 0L504.528028 453.348904 347.753521 296.574398a31.669058 31.669058 0 0 0-44.792716 0l-6.384482 6.384482a31.669058 31.669058 0 0 0 0 44.792716l156.774506 156.774506-156.774506 156.723836a31.669058 31.669058 0 0 0 0 44.792716l6.384482 6.435153a31.669058 31.669058 0 0 0 44.792716 0l156.774507-156.774506 156.723836 156.774506a31.669058 31.669058 0 0 0 44.792716 0l6.435152-6.435153a31.669058 31.669058 0 0 0 0-44.792716z" fill="#1296db" p-id="13925"></path></svg>