<?xml version="1.0" standalone="no"?><!DOCTYPE svg PUBLIC "-//W3C//DTD SVG 1.1//EN" "http://www.w3.org/Graphics/SVG/1.1/DTD/svg11.dtd"><svg t="1583399451885" class="icon" viewBox="0 0 1470 1024" version="1.1" xmlns="http://www.w3.org/2000/svg" p-id="2472" xmlns:xlink="http://www.w3.org/1999/xlink" width="287.109375" height="200"><defs><style type="text/css"></style></defs><path d="M715.952627 1010.201032l-11.855451-8.784694a44.856362 44.856362 0 0 0-50.53143-1.788036l-18.890981 12.088673a38.442757 38.442757 0 0 1-20.717887 6.063772H0v6.219253h613.840267a44.389918 44.389918 0 0 0 24.060735-7.0744l18.890981-12.088673a38.637109 38.637109 0 0 1 43.612511 1.554813l11.855451 8.784695a45.011843 45.011843 0 0 0 26.626177 8.823565h169.08594v-6.219253h-169.08594a38.870331 38.870331 0 0 1-22.933495-7.579715zM932.887944 1017.780747h537.187975v6.180383H932.887944z" p-id="2473"></path><path d="M331.17522 992.592773h167.142423v6.180382h-167.142423zM1130.699059 927.368357h92.550258v6.180383h-92.550258zM128.272092 765.279077a14.576374 14.576374 0 1 0-14.576374-14.576374 14.615244 14.615244 0 0 0 14.576374 14.576374z m0-25.265715a10.689341 10.689341 0 1 1-10.689341 10.689341 10.689341 10.689341 0 0 1 10.689341-10.689341zM1341.803826 404.756757a14.576374 14.576374 0 1 0-14.576374-14.576374 14.615244 14.615244 0 0 0 14.576374 14.576374z m0-25.265715a10.689341 10.689341 0 1 1-10.689341 10.689341 10.689341 10.689341 0 0 1 10.689341-10.689341zM1316.538111 765.279077a14.576374 14.576374 0 1 0-14.576374-14.576374 14.615244 14.615244 0 0 0 14.576374 14.576374z m0-25.265715a10.689341 10.689341 0 1 1-10.689341 10.689341 10.689341 10.689341 0 0 1 10.689341-10.689341zM1100.807774 87.341634a14.576374 14.576374 0 1 0-14.576374-14.576374 14.576374 14.576374 0 0 0 14.576374 14.576374z m0-25.265715a10.689341 10.689341 0 1 1-10.689341 10.689341A10.689341 10.689341 0 0 1 1100.807774 62.19253zM137.562101 240.024294h2.915275v-17.491649h17.491649v-2.915275h-17.491649V202.125721h-2.915275v17.491649h-17.491649v2.915275h17.491649v17.491649zM254.173094 473.24628h2.915275v-17.491649h17.491649v-2.915275h-17.491649V435.347707h-2.915275v17.491649h-17.491649v2.915275h17.491649v17.491649zM1148.190708 854.175524h2.915274v-17.491649h17.491649v-2.915275h-17.491649V816.276951h-2.915274v17.491649h-17.491649v2.915275h17.491649v17.491649zM1381.412694 232.250228h2.915274v-17.491649h17.491649v-2.915275h-17.491649V194.351655h-2.915274v17.491649h-17.491649v2.915275h17.491649v17.491649zM1264.801701 543.212876h2.915274v-17.491649h17.491649v-2.915275h-17.491649V505.314303h-2.915274v17.491649h-17.491649v2.915275h17.491649v17.491649zM409.654418 37.898573h2.915275v-17.491649h17.491649V17.491649h-17.491649V0h-2.915275v17.491649h-17.491648v2.915275h17.491648v17.491649zM314.849681 259.964774a14.576374 14.576374 0 1 0-14.576374-14.576374A14.615244 14.615244 0 0 0 314.849681 259.964774z m0-25.265715a10.689341 10.689341 0 1 1-10.689341 10.689341A10.689341 10.689341 0 0 1 314.849681 234.699059zM764.035226 834.079563A342.486486 342.486486 0 0 0 1089.146675 384.816277l-3.692682 1.20498a338.638324 338.638324 0 0 1-321.418767 444.287884 333.351959 333.351959 0 0 1-105.455208-16.791983l-1.24385 3.887033a340.659581 340.659581 0 0 0 106.310355 16.986334zM584.415427 783.198299l2.021257-3.303978a338.366231 338.366231 0 1 1 462.790161-470.331005l3.265108-2.098998a342.058913 342.058913 0 1 0-468.076526 475.733981z" p-id="2474"></path><path d="M432.393562 686.91649c-27.559065 65.185545-29.580322 114.395384-5.752809 138.494989 11.233526 11.350137 27.947768 16.791983 49.015488 16.791983 69.422411 0 185.955664-59.121773 307.425447-160.378986l-2.487701-2.993015c-156.764045 130.643183-304.432432 191.164288-351.19344 143.820224-22.661403-22.933495-20.329183-70.588521 6.569086-134.258123zM1105.200121 154.626177c51.269967 51.853022-6.024901 195.440024-142.576374 357.257212l2.993016 2.526572c137.911934-163.25539 195.129062-309.135742 142.343152-362.504707-27.559065-27.908898-80.111752-26.898269-151.905254 2.954145l1.477073 3.614941c70.238688-29.191619 121.275433-30.55208 147.668387-3.848163zM762.558154 621.497722l26.120862 25.304586a11.155785 11.155785 0 0 0-4.66444 8.123899 14.420893 14.420893 0 0 0 4.586699 11.661099l24.099606 23.322199a14.459763 14.459763 0 0 0 11.661099 4.159125 11.155785 11.155785 0 0 0 8.007288-4.897661l25.071364 24.255086a6.918919 6.918919 0 0 0 4.897661 1.943517 6.841178 6.841178 0 0 0 4.897662-2.098998l9.639842-9.989675a6.918919 6.918919 0 0 0 1.943517-5.247495l-3.070756-51.153355L937.707865 583.054965a61.920437 61.920437 0 0 0 16.986335-38.365017V544.184634a22.505922 22.505922 0 0 0-7.0744-17.724871 22.078348 22.078348 0 0 0-17.958093-6.530215h-0.544185a62.19253 62.19253 0 0 0-37.743091 18.191314l-61.803827 63.825084-52.163984-2.33222a6.99666 6.99666 0 0 0-5.169754 2.137868l-9.678712 9.950805a6.957789 6.957789 0 0 0 0 9.795323z m2.643182-7.0744l9.678713-9.989675a3.109626 3.109626 0 0 1 2.293349-0.932888l53.95202 2.448831L894.017613 540.880656a58.305497 58.305497 0 0 1 35.449742-17.064075h0.544185a18.269056 18.269056 0 0 1 14.770725 5.480716 18.463407 18.463407 0 0 1 5.908291 14.615245v0.272092a58.305497 58.305497 0 0 1-15.897966 35.993927l-63.008806 65.107804 3.187367 52.86365a3.070756 3.070756 0 0 1-0.855147 2.29335l-9.678713 10.028545a3.070756 3.070756 0 0 1-2.176738 0.894018 3.187367 3.187367 0 0 1-2.137869-0.855148l-28.2976-27.520194-2.176739 3.887033a7.424233 7.424233 0 0 1-5.441846 3.5372 10.650471 10.650471 0 0 1-8.590344-3.109626l-24.138475-23.322199a10.456119 10.456119 0 0 1-3.381719-8.512602 7.307622 7.307622 0 0 1 3.342849-5.519587l3.653811-2.33222-29.619193-28.725175a3.031886 3.031886 0 0 1-0.272092-4.470088zM594.716064 507.102338v-37.66535h28.025509v-7.774067H594.716064V350.649256h-8.784694l-82.17188 110.236259v8.551473h82.599453v37.66535z m-82.405101-45.361676l73.426055-98.847252h0.621925v98.847252zM694.573945 510.173094q28.686304 0 41.863346-26.937139 10.028545-21.262071 10.067416-54.418463t-10.067416-54.418464q-13.177042-26.937139-41.863346-26.937139t-41.863347 26.937139q-10.067416 20.173702-10.106286 54.418464t10.106286 54.418463q13.138172 26.937139 41.863347 26.937139z m-43.41816-81.316732q0-31.523838 8.357121-49.093228 10.922563-24.332827 34.983298-24.293957t34.983298 24.293957q8.512602 18.424537 8.551473 49.093228T729.634983 478.105071q-11.194655 24.371698-34.983298 24.332828t-34.983298-24.332828q-8.473732-18.113574-8.512602-49.248709zM848.850288 350.649256l-82.171879 110.236259v8.551473h82.599453v37.66535h8.357121v-37.66535h28.025509v-7.774067h-28.025509V350.649256z m0.427574 111.091406h-74.04798l73.387185-98.847252h0.660795z" p-id="2475"></path></svg>