<?xml version="1.0" standalone="no"?><!DOCTYPE svg PUBLIC "-//W3C//DTD SVG 1.1//EN" "http://www.w3.org/Graphics/SVG/1.1/DTD/svg11.dtd"><svg class="icon" width="200px" height="200.00px" viewBox="0 0 1024 1024" version="1.1" xmlns="http://www.w3.org/2000/svg"><path fill="#1296db" d="M804.629533 365.850318L474.088075 717.517757c-0.062206 0.081346-0.172262 0.105271-0.210542 0.172262-0.066991 0.081346-0.095701 0.172262-0.157907 0.253607-1.51686 1.531215-3.349533 2.406879-5.12 3.445234-0.894804 0.516785-1.650841 1.339813-2.60785 1.736972a23.111776 23.111776 0 0 1-9.043739 1.832673 23.772112 23.772112 0 0 1-8.646579-1.646056c-0.890019-0.358879-1.622131-1.090991-2.473869-1.579066-1.713047-0.947439-3.512224-1.732187-4.986019-3.153346-0.066991-0.076561-0.095701-0.172262-0.162691-0.239252-0.076561-0.066991-0.172262-0.095701-0.239253-0.157906l-188.736598-185.81772a23.50415 23.50415 0 0 1-0.263178-33.27043 23.556785 23.556785 0 0 1 33.327851-0.224897l171.543925 168.912149 314.033047-334.139813c8.881047-9.474393 23.805607-9.905047 33.275215-1.024 9.469607 8.914542 9.962467 23.800822 1.009645 33.236935M512 0C229.237234 0 0 229.237234 0 512s229.237234 512 512 512c282.777121 0 512-229.237234 512-512S794.777121 0 512 0"  /></svg>