<?xml version="1.0" standalone="no"?><!DOCTYPE svg PUBLIC "-//W3C//DTD SVG 1.1//EN" "http://www.w3.org/Graphics/SVG/1.1/DTD/svg11.dtd"><svg t="1583394538667" class="icon" viewBox="0 0 1024 1024" version="1.1" xmlns="http://www.w3.org/2000/svg" p-id="6943" xmlns:xlink="http://www.w3.org/1999/xlink" width="200" height="200"><defs><style type="text/css"></style></defs><path d="M62 512A450 450 0 1 0 512 62 450 450 0 0 0 62 512z" fill="#4e88ff" p-id="6944"></path><path d="M679.31428531 776.96H344.68571469v-75.15428531l56.50285687-59.24571469C503.77142844 537.78285688 552.59428531 476.89142844 552.59428531 415.45142844c0-43.88571469-20.84571469-65.82857156-61.44-65.82857156-31.26857156 0-60.34285687 18.10285688-78.99428531 32.91428625l-21.94285688 17.55428531L350.72 306.28571469l12.06857156-10.42285782a227.54742844 227.54742844 0 0 1 143.17714313-49.37142843c52.11428531 0 94.90285687 17.00571469 123.97714219 49.37142843a167.14971469 167.14971469 0 0 1 39.49714312 111.36c0 100.93714313-74.05714312 184.32-149.76 260.57142844l-4.93714313 4.93714313h164.57142844v104.22857156z" fill="#FFFFFF" p-id="6945"></path></svg>